<?xml version="1.0" encoding="utf-8"?>
<!-- Generator: Adobe Illustrator 24.2.3, SVG Export Plug-In . SVG Version: 6.00 Build 0)  -->
<svg version="1.1" id="Layer_1" xmlns="http://www.w3.org/2000/svg" xmlns:xlink="http://www.w3.org/1999/xlink" x="0px" y="0px"
	 viewBox="0 0 60 60" style="enable-background:new 0 0 60 60;" xml:space="preserve">
<style type="text/css">
	.st0{fill:none;stroke:#5B5B5B;stroke-width:3;stroke-linecap:round;stroke-miterlimit:10;}
	.st1{fill:none;stroke:#5B5B5B;stroke-width:3;stroke-linecap:round;stroke-linejoin:round;stroke-miterlimit:10;}
	.st2{fill:#5B5B5B;}
	.st3{fill-rule:evenodd;clip-rule:evenodd;fill:#5B5B5B;}
</style>
<g>
	<g>
		<path class="st2" d="M42.3,9L42.3,9c4.8,0,8.7,3.9,8.7,8.7c0,4.8-3.9,8.7-8.7,8.7h-8.7v-8.7v-0.4l0-0.4C34.1,12.4,37.8,9,42.3,9
			 M42.3,6c-6,0-11,4.6-11.6,10.6l-0.1-0.1v1.2v11.7h11.7c6.4,0,11.7-5.2,11.7-11.7S48.8,6,42.3,6L42.3,6z"/>
	</g>
	<g>
		<path class="st2" d="M17.7,9L17.7,9c4.5,0,8.2,3.4,8.6,7.8l0,0.4v0.4v8.7h-8.7c-4.8,0-8.7-3.9-8.7-8.7C9,12.9,12.9,9,17.7,9
			 M17.7,6C11.2,6,6,11.2,6,17.7s5.2,11.7,11.7,11.7h11.7V17.7v-1.2l-0.1,0.1C28.7,10.6,23.7,6,17.7,6L17.7,6z"/>
	</g>
	<g>
		<path class="st2" d="M26.4,33.6v8.7v0.4l0,0.4c-0.4,4.5-4.1,7.8-8.6,7.8C12.9,51,9,47.1,9,42.3c0-4.8,3.9-8.7,8.7-8.7H26.4
			 M29.4,30.6H17.7C11.2,30.6,6,35.9,6,42.3S11.2,54,17.7,54c6,0,11-4.6,11.6-10.6l0.1,0.1v-1.2V30.6L29.4,30.6z"/>
	</g>
	<g>
		<path class="st2" d="M42.3,33.6c4.8,0,8.7,3.9,8.7,8.7c0,4.8-3.9,8.7-8.7,8.7c-4.5,0-8.2-3.4-8.6-7.8l0-0.4v-0.4v-8.7H42.3
			 M42.3,30.6H30.6v11.7v1.2l0.1-0.1c0.6,6,5.6,10.6,11.6,10.6C48.8,54,54,48.8,54,42.3S48.8,30.6,42.3,30.6L42.3,30.6z"/>
	</g>
</g>
</svg>
