<?xml version="1.0" encoding="utf-8"?>
<!-- Generator: Adobe Illustrator 24.2.3, SVG Export Plug-In . SVG Version: 6.00 Build 0)  -->
<svg version="1.1" id="Layer_1" xmlns="http://www.w3.org/2000/svg" xmlns:xlink="http://www.w3.org/1999/xlink" x="0px" y="0px"
	 viewBox="0 0 60 60" style="enable-background:new 0 0 60 60;" xml:space="preserve">
<style type="text/css">
	.st0{fill:none;stroke:#5B5B5B;stroke-width:3;stroke-linecap:round;stroke-miterlimit:10;}
	.st1{fill:none;stroke:#5B5B5B;stroke-width:3;stroke-linecap:round;stroke-linejoin:round;stroke-miterlimit:10;}
	.st2{fill:#5B5B5B;}
	.st3{fill-rule:evenodd;clip-rule:evenodd;fill:#5B5B5B;}
</style>
<g>
	<g>
		<g>
			<path class="st2" d="M35.2,17L35.2,17c9.2,0,16.8,6.9,17.7,16.1L53,34v0.8v17.8H35.2c-9.8,0-17.8-8-17.8-17.8S25.4,17,35.2,17
				 M35.2,14c-11.5,0-20.8,9.3-20.8,20.8c0,11.5,9.3,20.8,20.8,20.8H56V34.8v-2.1l-0.1,0.1C54.9,22.1,45.9,14,35.2,14L35.2,14z"/>
		</g>
	</g>
	<g>
		<g>
			<path class="st2" d="M24.8,7.4L24.8,7.4c9.8,0,17.8,8,17.8,17.8S34.6,43,24.8,43H7V25.2v-0.8l0.1-0.9C8,14.3,15.6,7.4,24.8,7.4
				 M24.8,4.4c-10.7,0-19.7,8.1-20.7,18.8L4,23.1v2.1V46h20.8c11.5,0,20.8-9.3,20.8-20.8C45.6,13.7,36.3,4.4,24.8,4.4L24.8,4.4z"/>
		</g>
	</g>
</g>
</svg>
