<?xml version="1.0" encoding="UTF-8"?>
<!-- Generator: Adobe Illustrator 24.2.3, SVG Export Plug-In . SVG Version: 6.00 Build 0)  -->
<svg version="1.1" id="Layer_1" xmlns="http://www.w3.org/2000/svg" xmlns:xlink="http://www.w3.org/1999/xlink" x="0px" y="0px" viewBox="0 0 60 60" style="enable-background:new 0 0 60 60;" xml:space="preserve">
<style type="text/css">
	.st0{fill:none;stroke:#5B5B5B;stroke-width:3;stroke-linecap:round;stroke-miterlimit:10;}
	.st1{fill:none;stroke:#5B5B5B;stroke-width:3;stroke-linecap:round;stroke-linejoin:round;stroke-miterlimit:10;}
	.st2{fill:#5B5B5B;}
	.st3{fill-rule:evenodd;clip-rule:evenodd;fill:#5B5B5B;}
</style>
<g>
	<g>
		<path class="st0" d="M8.5,45.5c-2-3.6-3.2-7.8-3.2-12.2c0-11.8,8.2-21.6,19.3-24.1"/>
		<path class="st0" d="M44.5,53.4c-4.1,3-9.1,4.7-14.5,4.7c-5.1,0-9.9-1.5-13.8-4.2"/>
		<path class="st0" d="M36,9.3c10.7,2.7,18.7,12.4,18.7,24c0,4.1-1,8-2.8,11.4"/>
	</g>
	<g>
		<line class="st1" x1="30" y1="30.8" x2="38.2" y2="22.7"/>
		<line class="st1" x1="21.8" y1="22.7" x2="30" y2="30.8"/>
		<line class="st1" x1="30" y1="30.8" x2="30.3" y2="1.5"/>
	</g>
	<g>
		<g>
			<line class="st1" x1="25.9" y1="35.8" x2="14.4" y2="35.8"/>
			<line class="st1" x1="25.9" y1="47.4" x2="25.9" y2="35.8"/>
			<line class="st1" x1="25.9" y1="35.8" x2="2.9" y2="58.5"/>
		</g>
		<g>
			<line class="st1" x1="34.1" y1="35.8" x2="45.6" y2="35.8"/>
			<line class="st1" x1="34.1" y1="47.4" x2="34.1" y2="35.8"/>
			<line class="st1" x1="34.1" y1="35.8" x2="57.1" y2="58.5"/>
		</g>
	</g>
</g>
</svg>