<svg enable-background="new 0 0 466.7 454.5" viewBox="0 0 466.7 454.5" xmlns="http://www.w3.org/2000/svg" xmlns:xlink="http://www.w3.org/1999/xlink"><linearGradient id="a"><stop offset="0" stop-color="#fff"/><stop offset=".2734" stop-color="#fcfeff"/><stop offset=".446" stop-color="#f4fafd"/><stop offset=".5906" stop-color="#e5f4fb"/><stop offset=".7199" stop-color="#d0eaf9"/><stop offset=".8388" stop-color="#b6def5"/><stop offset=".9486" stop-color="#95d0f0"/><stop offset="1" stop-color="#83c8ee"/></linearGradient><linearGradient id="b" gradientTransform="matrix(1 0 0 -1 0 426.6892)" gradientUnits="userSpaceOnUse" x1="295.6725" x2="407.0504" xlink:href="#a" y1="410.0434" y2="342.7526"/><linearGradient id="c"><stop offset="0" stop-color="#fff"/><stop offset=".08919893" stop-color="#f8f8f8"/><stop offset=".2165" stop-color="#e5e5e5"/><stop offset=".3667" stop-color="#c7c7c7"/><stop offset=".5344" stop-color="#9c9c9c"/><stop offset=".7165" stop-color="#656565"/><stop offset=".908" stop-color="#222"/><stop offset="1"/></linearGradient><linearGradient id="d" gradientTransform="matrix(1 0 0 -1 0 426.6892)" gradientUnits="userSpaceOnUse" x1="405.8838" x2="427.2959" xlink:href="#c" y1="417.2911" y2="335.3488"/><linearGradient id="e"><stop offset="0"/><stop offset=".9987" stop-color="#001fd4" stop-opacity="0"/></linearGradient><linearGradient id="f" gradientTransform="matrix(1 0 0 -1 0 426.6892)" gradientUnits="userSpaceOnUse" x1="387.8384" x2="416.2673" xlink:href="#e" y1="360.3278" y2="331.3188"/><linearGradient id="g" gradientTransform="matrix(1 0 0 -1 0 426.6892)" gradientUnits="userSpaceOnUse" x1="317.6199" x2="910.9055" xlink:href="#c" y1="417.0877" y2="37.8286"/><linearGradient id="h" gradientTransform="matrix(1 0 0 -1 0 426.6892)" gradientUnits="userSpaceOnUse" x1="393.8399" x2="376.2062" xlink:href="#e" y1="302.4625" y2="281.1996"/><linearGradient id="i" gradientTransform="matrix(1 0 0 -1 0 426.6892)" gradientUnits="userSpaceOnUse" x1="335.5537" x2="374.7535" xlink:href="#e" y1="206.9946" y2="206.9946"/><linearGradient id="j" gradientTransform="matrix(1 0 0 -1 0 426.6892)" gradientUnits="userSpaceOnUse" x1="336.585" x2="337.3477" y1="233.26" y2="266.0565"><stop offset=".008473557" stop-color="#ff5741"/><stop offset="1" stop-color="#feaea3"/></linearGradient><linearGradient id="k" gradientTransform="matrix(1 0 0 -1 0 426.6892)" gradientUnits="userSpaceOnUse" x1="371.0761" x2="391.6798" xlink:href="#e" y1="192.5928" y2="192.5928"/><linearGradient id="l" gradientTransform="matrix(1 0 0 -1 0 426.6892)" gradientUnits="userSpaceOnUse" x1="369.3011" x2="326.4519" xlink:href="#e" y1="160.9632" y2="157.6489"/><linearGradient id="m"><stop offset="0"/><stop offset="1" stop-color="#fff"/></linearGradient><linearGradient id="n" gradientTransform="matrix(1 0 0 -1 0 426.6892)" gradientUnits="userSpaceOnUse" x1="320.8963" x2="339.2789" xlink:href="#m" y1="260.6946" y2="260.6946"/><linearGradient id="o"><stop offset="0" stop-color="#fff" stop-opacity="0"/><stop offset=".08919893" stop-color="#f8f8f8" stop-opacity=".089199"/><stop offset=".2165" stop-color="#e5e5e5" stop-opacity=".2165"/><stop offset=".3667" stop-color="#c7c7c7" stop-opacity=".3667"/><stop offset=".5344" stop-color="#9c9c9c" stop-opacity=".5344"/><stop offset=".7165" stop-color="#656565" stop-opacity=".7165"/><stop offset=".908" stop-color="#222" stop-opacity=".908"/><stop offset="1"/></linearGradient><linearGradient id="p" gradientTransform="matrix(1 0 0 -1 0 426.6892)" gradientUnits="userSpaceOnUse" x1="288.0573" x2="503.0548" xlink:href="#o" y1="22.0487" y2="104.6783"/><linearGradient id="q" gradientTransform="matrix(1 0 0 -1 0 426.6892)" gradientUnits="userSpaceOnUse" x1="397.6134" x2="291.2838" xlink:href="#e" y1="389.1021" y2="260.8894"/><linearGradient id="r" gradientTransform="matrix(1 0 0 -1 0 426.6892)" gradientUnits="userSpaceOnUse" x1="441.8577" x2="442.0614" y1="244.1028" y2="267.931"><stop offset=".008713942" stop-color="#9e9e9e"/><stop offset="1" stop-color="#e6e6e6"/></linearGradient><linearGradient id="s" gradientTransform="matrix(-1 0 0 -1 1221.1931 426.6892)" gradientUnits="userSpaceOnUse" x1="1113.3816" x2="1124.1787" xlink:href="#m" y1="55.3888" y2="-27.8127"/><linearGradient id="t" gradientTransform="matrix(1 0 0 -1 0 426.6892)" gradientUnits="userSpaceOnUse" x1="67.8717" x2="71.5138" xlink:href="#o" y1="89.7287" y2="162.5708"/><linearGradient id="u" gradientTransform="matrix(1 0 0 -1 0 426.6892)" gradientUnits="userSpaceOnUse" x1="91.8755" x2="152.7154" xlink:href="#m" y1="223.5636" y2="334.8859"/><linearGradient id="v" gradientTransform="matrix(1 0 0 -1 0 426.6892)" gradientUnits="userSpaceOnUse" x1="72.8937" x2="121.9039" y1="199.6946" y2="199.6946"><stop offset="0" stop-color="#ff813d"/><stop offset=".996" stop-color="#ff6c1d"/></linearGradient><linearGradient id="w" gradientTransform="matrix(1 0 0 -1 0 426.6892)" gradientUnits="userSpaceOnUse" x1="65.7229" x2="115.2179" y1="240.3283" y2="240.3283"><stop offset="0"/><stop offset="1" stop-color="#e96800" stop-opacity="0"/></linearGradient><linearGradient id="x" gradientTransform="matrix(.9173 .3978 .3963 -.9189 1239.9482 -720.092)" gradientUnits="userSpaceOnUse" x1="-697.3536" x2="-690.0799" xlink:href="#e" y1="-1280.0542" y2="-1202.1215"/><linearGradient id="y" gradientTransform="matrix(1 0 0 -1 0 426.6892)" gradientUnits="userSpaceOnUse" x1="110.9699" x2="101.5131" xlink:href="#m" y1="378.5493" y2="376.689"/><linearGradient id="z" gradientTransform="matrix(1 0 0 -1 0 426.6892)" gradientUnits="userSpaceOnUse" x1="79" x2="96.6519" xlink:href="#e" y1="364.0946" y2="364.0946"/><linearGradient id="A" gradientTransform="matrix(1 0 0 -1 0 426.6892)" gradientUnits="userSpaceOnUse" x1="102.0435" x2="143.9793" xlink:href="#m" y1="290.0688" y2="312.2368"/><linearGradient id="B" gradientTransform="matrix(1 0 0 -1 0 426.6892)" gradientUnits="userSpaceOnUse" x1="52.7256" x2="135.0496" xlink:href="#m" y1="-193.507" y2="41.4004"/><linearGradient id="C" gradientTransform="matrix(1 0 0 -1 0 426.6892)" gradientUnits="userSpaceOnUse" x1="236.4518" x2="186.0686" xlink:href="#e" y1="264.4832" y2="218.1851"/><linearGradient id="D" gradientTransform="matrix(1 0 0 -1 0 426.6892)" gradientUnits="userSpaceOnUse" x1="289.2542" x2="238.1041" xlink:href="#e" y1="207.9402" y2="175.3358"/><linearGradient id="E" gradientTransform="matrix(1 0 0 -1 0 426.6892)" gradientUnits="userSpaceOnUse" x1="163.006" x2="43.5626" y1="91.1526" y2="22.7336"><stop offset="0"/><stop offset=".9946" stop-color="#fff" stop-opacity="0"/></linearGradient><linearGradient id="F"><stop offset="0" stop-color="#fff"/><stop offset=".09008683" stop-color="#f8f8f8"/><stop offset=".2167" stop-color="#e6e6e6"/><stop offset=".3648" stop-color="#c8c8c8"/><stop offset=".5295" stop-color="#9e9e9e"/><stop offset=".7076" stop-color="#686868"/><stop offset=".8942" stop-color="#282828"/><stop offset="1"/></linearGradient><linearGradient id="G" gradientTransform="matrix(1 0 0 -1 0 426.6892)" gradientUnits="userSpaceOnUse" x1="211.7206" x2="198.2379" xlink:href="#F" y1="-123.6726" y2="95.0474"/><linearGradient id="H" gradientTransform="matrix(.9793 .2027 .2026 -.9792 -18.7699 257.7687)" gradientUnits="userSpaceOnUse" x1="-118.2551" x2="499.2107" xlink:href="#F" y1="-32.0183" y2="-53.76"/><linearGradient id="I" gradientTransform="matrix(1 0 0 -1 0 426.6892)" gradientUnits="userSpaceOnUse" x1="42.6288" x2="241.8349" xlink:href="#F" y1="261.6114" y2="94.3635"/><linearGradient id="J" gradientTransform="matrix(1 0 0 -1 0 426.6892)" gradientUnits="userSpaceOnUse" x1="268.9979" x2="254.8384" xlink:href="#F" y1="-132.0938" y2="97.6042"/><linearGradient id="K" gradientTransform="matrix(1 0 0 -1 0 426.6892)" gradientUnits="userSpaceOnUse" x1="129.4744" x2="159.4641" xlink:href="#F" y1="185.5021" y2="162.4019"/><linearGradient id="L" gradientTransform="matrix(1 0 0 -1 0 426.6892)" gradientUnits="userSpaceOnUse" x1="62.3275" x2="203.6791" xlink:href="#m" y1="-301.7485" y2="45.4311"/><linearGradient id="M" gradientTransform="matrix(1 0 0 -1 0 426.6892)" gradientUnits="userSpaceOnUse" x1="195.7779" x2="619.6891" xlink:href="#c" y1="394.9036" y2="129.3208"/><linearGradient id="N" gradientTransform="matrix(1 0 0 -1 0 426.6892)" gradientUnits="userSpaceOnUse" x1="224.1808" x2="252.8712" xlink:href="#c" y1="428.7526" y2="345.8191"/><linearGradient id="O" gradientTransform="matrix(1 0 0 -1 0 426.6892)" gradientUnits="userSpaceOnUse" x1="205.0466" x2="381.2968" xlink:href="#c" y1="385.9471" y2="304.6744"/><linearGradient id="P" gradientTransform="matrix(1 0 0 -1 0 426.6892)" gradientUnits="userSpaceOnUse" x1="253.9823" x2="216.6889" xlink:href="#e" y1="376.5171" y2="404.6223"/><linearGradient id="Q" gradientTransform="matrix(1 0 0 -1 0 426.6892)" gradientUnits="userSpaceOnUse" x1="204.7447" x2="367.0375" xlink:href="#c" y1="406.5067" y2="346.9771"/><clipPath id="R"><path d="m215.6 43.9 19.4-1.2v-29.7l-19.4 1.7z"/></clipPath><clipPath id="S"><path d="m215.6 43.9 19.4-1.2v-29.7l-19.4 1.7z"/></clipPath><clipPath id="T"><path d="m215.6 43.9 19.4-1.2v-29.7l-19.4 1.7z"/></clipPath><clipPath id="U"><path d="m215.6 43.9 19.4-1.2v-29.7l-19.4 1.7z"/></clipPath><linearGradient id="V" gradientTransform="matrix(1 0 0 -1 0 426.6892)" gradientUnits="userSpaceOnUse" x1="38.8915" x2="140.8517" xlink:href="#a" y1="464.034" y2="402.655"/><linearGradient id="W" gradientTransform="matrix(1 0 0 -1 0 426.6892)" gradientUnits="userSpaceOnUse" x1="122.7923" x2="145.3232" xlink:href="#c" y1="444.5522" y2="402.2054"/><path d="m466.7 127-96.1 3.3v-69.8l96.1-9z" fill="url(#b)" opacity=".78"/><path d="m466.7 57.6-96 8.3v-6.3l96-8.7z" fill="url(#d)"/><g fill="none"><path d="m400.8 63.6v65.4" stroke="#c4e5f7" stroke-miterlimit="10"/><path d="m436.8 86.2 21.3-1.4v-19.4l-21.3 1.8z" stroke="#c4e5f7" stroke-miterlimit="10"/><path d="m408.7 88.1 20.2-1.3v-18.9l-20.2 1.6z" stroke="#c4e5f7" stroke-miterlimit="10"/><path d="m408.4 114 49.4-2.2v-18.4l-49.4 2.9z" stroke="#c4e5f7" stroke-miterlimit="10"/></g><path d="m431.7 54c-2 28-23.5 51.2-48.8 52.8-4.1.2-8.6-.2-12.3-1v-45.3z" fill="url(#f)" opacity=".36"/><path d="m424.3 44.7c0 28.2-21.1 52.4-46.2 53.9-24.1 1.5-42.9-18.6-42.9-44.7s18.8-50.1 42.9-53.5c25-3.7 46.2 16.1 46.2 44.3z" fill="url(#g)"/><path d="m375.2 50.5 23 1c1.8.1 2.2.9 2.3 1.9.1.8-.8 1.7-2.9 1.6l-23.1-.9z" fill="#d9d9d9"/><path d="m374.3 53.7c-.5-.1-.8-.4-1-1-.2-.7-.2-1.5.2-2.1l17.7-35.1c.8-1.6 1.8-1.6 2.6-1.3.7.3 1.2 1.4.2 3.3l-16.2 32.3-1.1 1.8c-.3.5-.3.5-.7 1.1-.7 1.2-1.7 1-1.7 1z" fill="#d9d9d9"/><path d="m374.7 54.2c-.7 0-1.3-.3-1.7-.9s-.5-1.4-.3-2.1l15.8-39c.7-1.7 1.8-1.9 3-1.8 1 .1 1.9 1.2 1.1 3.2l-14.6 36 17.3-1.6c1.2-.1 2.2.8 2.3 1.9.1 1.2-.8 2.2-1.9 2.3l-20.8 1.9c-.1.1-.1.1-.2.1z" fill="#76aceb"/><path d="m374.5 54.1c-.7 0-1.1-.3-1.5-.8-.4-.6-.5-1.4-.3-2.1l15.8-39c.7-1.7 1.8-1.9 3-1.8 1 .1 1.9 1.2 1.1 3.2l-14.6 36-.9 2c-.2.5-.2.5-.6 1.2-.7 1.3-2 1.3-2 1.3z" fill="#222e4f"/><path d="m369.1 105.1s1.1-.2-8.4-1c-9.5-.9-11.1-.3-11.1-.3s3.9 5 7.4 5.3c3.5.2 10.3-1 12.1-4z" fill="#e19b0c"/><path d="m372.7 109.5 3.1 22.2s16.4 25.3 17.1 25.7 13.3.3 13.3.3l-20.4-36.7c-1.6-3-3.8-5.6-6.4-7.7-1.2-1-2.4-1.9-3.5-2.6" fill="#713300"/><path d="m383.6 143.8 6.8 10.1 12.9-1.5-17.3-31s-1.6-5.3-10.2-10.8c-1.4.5 1.5 20 3.8 25.2 2.4 5.2 4 8 4 8z" fill="#7fdb45"/><path d="m393.1 152.3s-1.8-1.8-3.1-7.5.6-8.3-4.7-14.3c-5.2-5.9-11.4-9.5-11.4-9.5l10.5 23.2 5.5 9.2z" fill="url(#h)" opacity=".36"/><path d="m368.3 344.4 2.1 19.8 8.8-4 2.5-28.1z" fill="#713300"/><path d="m333.7 280.1-12.5 12.9 6.6 2.3 14.6-8.5z" fill="#713300"/><path d="m380.4 359.5-12.4 3.3v8.7h29.7z"/><path d="m328.8 294.2-8.2-2.4-4.7 4.4 11.4 24.3z"/><path d="m384.4 186.3c5.5 20.8 8.3 33.6 12.2 47.9 2.6 9.8 1.8 14.7 1.3 15.5-1 1.5-4 8.5-16.4 14.9-13.8 7.2-47.4 29.2-47.4 29.2l-6.2-8.9 25.9-27.9c4.7-4.7-2.9-1.3 4.1-3.1 1.3-.3 15.5-13.6 16.6-17.3l-14.5-44.3z" fill="#2b5aff"/><path d="m365.6 190.5-27.1 2.3s-2.2 5.8-2.2 14c-.1 6 1 12.6 5 22.7 9.5 24 23.1 50.9 23.1 50.9l1.6 71.9 15-1 7.9-71c1-5.1 1.7-10.7.6-14.5z" fill="#2b5aff"/><path d="m353.4 105.6s-7.1 2.9-12.9 5.8c-2.1 1.1-5.2 3.2-6.2 4.3-4.3 4.3 2.7 27.6 5.6 41.2s-1.4 35.8-1.4 35.8 18 5.2 33 2.6 12.8-8.9 12.8-8.9-3.2-13.2-3.2-26.6c0-5 .4-5.2 1-10.4.3-2.3 5.3-6.9 3.7-12.2-2.1-6.9-5.3-9.6-7.4-17.5-1.4-5.2-.3-7.4-.3-7.4-1.1-1-2.8-1.9-3.8-2.4-6.9-3.4-10.6-3.9-10.6-3.9z" fill="#2b5aff"/><path d="m364.5 314.3s-2.4-24.6 8.4-34.3c3.9-4.4 1.1-5.7-3.2-9.6-4.9-4.4-20.7-19.4-14.5-42.3 1.9-7.1 3.2-14.6 2.4-21.9-.4-3.8-1.5-7.5-3.1-11-1.6-3.3-3.8-6.4-4.5-10-.9-4.5-1.1-5.6-.6-10.2.4-4.2.8-8.8 3.3-12.3 5.9-8 .4-9.3-1-10.4s-10.4.6-5.3-27.3c-.6 1.4-10.4 11.1-10.7 11.9s6.4 20 4.7 44.9c-.5 7.5-1.7 10.9-1.7 10.9s-2.6 6.5-2.2 16.4c.2 4.7.9 10.5 3.2 16.2l11.2 26.4 12.1 25.8 2.6 5c-.2.1-4.2 14.8-1.1 31.8z" fill="url(#i)" opacity=".36"/><path d="m442.6 179.4h-208.2l-1.4-4.2c-1.1-3.9-1.8-9.2-1.4-13.9.2-3.2 1.2-6.2 2.9-9h208.2z" fill="url(#j)"/><path d="m232.2 171.4h210.5v-12.4h-210.8l-.4 2.8v3.1l.2 3.1z" fill="#ff8b7c" opacity=".5"/><path d="m334.7 115.7-26.3 31.3s-3.3 4.4.5 11.4 26.3 26.5 26.3 26.5 7.4 2.5 12.9.2 7.6-5.7 7.6-5.7l-18.5.1-16.3-26.9c7.7-7.8 19.4-19 22.4-21.8 2.5-2.3 6.9-12.4.8-16-2.8-1.7-7.1-1.4-9.4.9z" fill="#713300"/><path d="m367.3 85.4s-2.3 21.2 3.8 24.7c0 0 2.5 9.2-7.3 10.8-13 2.2-17.6-11.5-16-12.7 1.5-1.2 3.1-3.1 3.2-5.8.3-5.4-1.2-18.3-1.2-18.3z" fill="#713300"/><path d="m367.4 103.2c-.2-1.7-.4-7.3-.4-9.9s-12-8.4-10.7-2.9c1.3 5.3 11.2 14.1 11.1 12.8z" fill="#573300"/><circle cx="350" cy="60.7" r="10.5"/><path d="m345.4 67.4c-.6 2.4-.8 4.8-.7 7.1.1.6.1 1.1.2 1.7s.2 1.1.4 1.7c.2.5.4 1.1.6 1.6l.8 1.5c.3.5.6.9.9 1.4s.7.9 1.1 1.3l.6.6.3.3.3.3c.5.4.9.7 1.3 1.1s1 .7 1.4 1l1.5 1c1 .6 2.1 1.1 3.2 1.8-1.2-.2-2.4-.6-3.6-.9-1.1-.5-2.3-.9-3.4-1.6-2.2-1.3-4.1-3.1-5.4-5.3s-1.9-4.9-1.8-7.4c.2-2.7 1-5.1 2.3-7.2z"/><ellipse cx="355.8" cy="67.1" fill="#ffc900" rx="9.5" ry="10.1"/><path d="m375.7 80.8c.1 10.4-4.1 16-7.5 16-7.9 0-19.7-5.7-19-16.1s7.7-18.3 15.6-17.8c7.8.5 10.8 1.3 10.9 17.9z" fill="#713300"/><path d="m355.3 78s-.2 2.5-1.3 2.3c-.5-.1-.1-1-1-1.1s-2.5.4-2.4 2.2c.1 1.7 1.2 2.7 1.2 2.7-.1.4-1.5 4.2-1.8 3.8-.6-1.2-4.8-5.3-5.3-14.7 0 1-.3-7.3 5.6-12.3s13.2-3.7 17.1-2c3.3 1.5 5.6 4.3 6.6 7.4.3.8-.5 1.6-1.4 1.4-2.2-.6-6.2-1.3-9.9-.7-5.2.6-7.2 5.3-7.4 11z"/><path d="m371.1 207.3s6.1 2.7 10.8 13.5c3.7 8.5 1 11.9 6.4 19.3 7.4 10.1.6 19.3-.6 20.7s-16.8-54.8-16.6-53.5z" fill="url(#k)" opacity=".36"/><path d="m334.3 278s8-7.9 16.1-9.8c5.3-1.2 6.5-3.2 6.5-3.2l-3.5-7.7c-.1.1-12.2 13-19.1 20.7z" fill="url(#l)" opacity=".36"/><path d="m332.5 152.4s2.1 11.2 3.4 15.5c.7 2.1 4.1 11.2 3.2 11.4s-2 .2-2 .2l-6.3-10.1-10-16.8z" fill="url(#n)" opacity=".36"/><path d="m416.1 178.5c-.3-.1-1.9-5.1-6-5.4-4.1-.2-6.8 5.4-6.8 5.4s1.7 2.6 5.8 3.3 6.8 0 9.2-.9 2.1-2.4 1.5-2.4-3.7 0-3.7 0z" fill="#713300"/><path d="m397.7 371.6-77.1 35.5-82.8 1.8 130.2-37.4z" fill="url(#p)"/><path d="m337.1 179.4s-16.3-26.7-15.8-26.9 17.2-16 22.1-20.6c1.1-1 1.9-2.2 2.5-3.6 1.4-3.2 3.1-9-.8-12.8-5.7-5.6-11.6.7-14.3 4s-22.4 27.4-22.4 27.4-3.9 5.8.9 12.5 21.8 24.4 21.8 24.4z" fill="#7fdb45"/><path d="m311.9 162.9s-3.6-3.8-4.6-9.4 4.3-10.8 4.3-10.8l18.1-22c2.3-2.9 3.5-4.2 5.2-5.8 0 0 3.1-2.3 5.1-3.4s7.8-3.7 7.8-3.7 3.4-2.7 3.1-7.3-1-12.9-1-12.9-1.9-12.9-1-13.3c1.3-.6 1.8 5.1 2.3 9.6.1.8.6 2.2.7 2.8.3 5.7 3 6.7 3 6.7s.5 1 0 9.3c-.3 4.3-3.5 8-6 8.3-1.4.1-5.2 3.5-5.2 3.5s-3-.3-7.1 2.6c-4.7 3.4-7.3 11.5-10.2 19.2-2.9 7.6-6.3 7.8-13.5 10.9s-1 15.7-1 15.7z" fill="url(#q)" opacity=".36"/><path d="m349.6 103.8s10.2 6.6 19.5 1.3c0 0 0 3.1 2 4.9s.3 9.7-7.4 11.2c-7.6 1.5-16.1-5.3-16.2-11.9 0-.4 0-.8.3-1.4.1.1 1.7-2.2 1.8-4.1z" fill="#7fdb45"/><ellipse cx="442" cy="165.9" fill="url(#r)" rx="5.4" ry="13.5"/><path d="m200 408.4s-59.3 46.6-61.3 46.1-138.7 0-138.7 0l108.4-47h38.2l-59.7 31.5 87.6-23.3z" fill="url(#s)" opacity=".09"/><path d="m134.9 304.7s-39.4 31.5-40.7 31.2-91.7 0-91.7 0l72.8-31.2 25.9-.1-36.8 21.2 43.9-21h26.6z" fill="url(#t)"/><path d="m143.6 129.5 14.7-17.4c.4-.5.1-1.3-.6-1.3l-27.5-1.8c-.3 0-.5.1-.7.3l-14.4 20.7z" fill="url(#u)" stroke="#000" stroke-width="2"/><path d="m76.2 286.1v12.1s8.1-.5 8-.6c0-.1 1.1-11.9 1.1-11.9z" fill="#c89773"/><path d="m105.7 287.8c0 .2 3.8 9.8 3.8 9.8s8-.9 7.9-1-4.1-13.7-4.1-13.7z" fill="#c89773"/><path d="m80.4 161h-4.2s-1.8 10.3-2.3 16.5c-.8 8.5-1 32.4-1 32.4s-.1 24.6.5 34.3c.6 10.8 1.1 32.8.9 38.1-.2 6.6.1 10.6.1 10.6l13.2-1.2s4.1-38.6 4.9-47.8c1-10.8 4.2-45.6 4.2-45.6s3.9 28 4.9 32c1.3 5.4 3.5 62 3.5 62s14.1-.9 14.2-.9c-.1.8 2.4-56.2 2.7-68.1 0-1.5-1.8-62-1.8-62z" fill="url(#v)"/><path d="m75.5 296v8.3h26.5l-17.4-8.8z"/><path d="m108.5 296v8.3h26.4l-17.5-9.4z"/><path d="m87.7 72.4s-.2 13.8-2.1 16.9c-1.6 2.6 5.2 3.6 11 2.8 5.7-.8 8.4 3.1 7.1-1.9s-1.3-11.7-1.3-11.7-2.9-9.2-14.7-6.1z" fill="#f3c0a4"/><path d="m80.4 88.7c-.3.2-1.2.6-2.5 1.7-2.1 1.7-4.7 5-5.2 9.3-.9 7.2 2.7 21.4 3.6 27.9 1 6.9 1.1 27.1.4 30.8s-1 5.9-1 5.9 15.3-.9 25.1-.2c5.5.4 16.2-.3 19.3-.6 1.2-.1.3-2.8 0-8.8-.7-13.7-1.6-24.6-1.2-35 .3-7.6 1.7-21.7.9-25.1-.7-2.8-6.9-7.3-15.4-7.8-1.1-.1-.5-2.1-1.2-2.1-1.4-.1-4 .1-5.5.2-5.7.4-9.2-.6-12-.2-.2 0-1.8 3.2-2 3.2-2.2.3-2.9.6-3.3.8z" fill="#ffc600"/><path d="m131.6 126.9c-.6.4-12.2-33.1-12.2-33.1s-2.9-4.6-9.7.2c-6.9 4.7-3.2 18.8-2.6 20.9.4 1.6 8.7 16.3 12.9 23.8 1.4 2.5 4.2 5 7.4 4.2s19.7-10.5 19.7-10.5l-2.7-6.3z" fill="#177fff"/><path d="m74.4 94.6s-1.5 2.3-2.8 6c-.6 1.7-1.1 3.9-1.6 5.4-1.4 3.9-3.6 17.7-3.6 17.7s-1.7 5.9.5 8.6c3.2 3.9 10.3 11.1 10.7 11.2 2.2.6-.9-16.4-.9-16.4z" fill="#177fff"/><path d="m74.5 94.3s1.6-3.6 5.9-5.6c0 0 .4-.5 3.1-.8.2 0 .6-.8 1-1.6.5-.8.9-1.6 1-1.6 1.8-.2 5.9.1 5.8.2-3.4 1.1-1.6 2.7-.6 2.6h2.8c21.6 2.7 10.3 25.7 4.3 39.9-3.8 8.9-7.7 21.1 1.9 35.5 6.5 9.6 6.9 20.3 6.1 34.3-.8 13.9 4.1 14.7 8.3 24.1s-3.9 11.6-5.1 19.9c-1.6 11.8-3.1 30.7-1.9 35.9 0 0 2.5-13.9-.8-24.9-2.3-7.6-2.8-15-3.4-21.9-.5-1.4 1.7-8.3-.4-14.7-2.8-8.8-5.9-17.4-5.9-17.4s-4.5-11.8-4.8-11.6c-15.6 10.9-3 12.8-6.8 32.4-1.8 9.1-12.1 16.6-6.7 30.5 2.7 7.1 1.9 14.7-1.3 22.1-2.4 5.4-2.9 16.4-2.9 16.4s.2-14.7.3-26.6c0-1.8-.1-3.4-.2-4.9-.4-8.5-.8-17.8-1.7-28.5 0-2.2.3-24.6.9-43.5.4-12.3 2.9-22.8 3.3-27.1.5-4.4.3-9.7.2-14.6-.1-9.5-1.1-17.9-1.1-17.9s-.3-6.2-3.5-11.8c-.5-.8 2.8 6.8.9 13.2-1.7 5.7 3.6 10.6 3.6 11.4 0 1 .2 5.3.1 5.3 0 0-6.7-6.7-9.9-10.5-.4-.4-.7-.8-.9-1.3-.5-1-.5-1.9-.5-2.2-.4-4.7 1.8-12.9 3.5-20.7 1.9-7.4 4.8-12.9 5.4-14z" fill="url(#w)" opacity=".36"/><path d="m108.7 118.2-2-4.3-.9-6.3s5.6 1 7.2 3.2c3.2 4.4-2.7 8.2 5.7 14.9 2.6 2.1 3.7 4.7 3.7 8 0 1.2-.3 2.6.3 3.7.5 1.1 1.8 1.8 2.9 2.1 1.5.4 3.4.5 4.8-.1 1.7-.7 3.4-2.2 5.1-2.8 4.3-1.5 7.4-1.6 7.4-1.6-2.5 1.2-5.1 2.9-7.4 4.2-2.9 1.6-5.2 2.7-5.2 2.7-.3.1-3.1 2.2-6 1-.8-.3-1.5-.9-2.4-1.6-.2-.2-.4-.4-.5-.6-.3-.5-.9-.9-1.3-1.7-.9-1.7-2.3-3.9-3.5-6.3-3-6-6.5-11.7-6.9-12.5-.1-.2-1-2-1-2z" fill="url(#x)" opacity=".36"/><path d="m102.3 76.4.1 3.1s-2.9-.5-3.9-4.6c.8 1 3.1 1.5 3.8 1.5z" fill="#eda177"/><path d="m146.5 131.1-1.9-4.3c2.3-1.7 1.8-3.9 2.6-4.7s1.6 1.3 1.6 1.7 3-3.1 3-3.1.8 2.3.4 5-1.5 4.1-2.1 4.6c-.4.3-2.2 1-3.4 1.4z" fill="#f3c0a4"/><path d="m88.9 74.7c2.3 1.2 5.4 2.3 7.9 2.6 5.3.7 10.2-1 12-2.1 1.9-1.1.4-8.9.6-9.5s1.5-1.9 1.2-2.4c-.2-.4-2.6-1.9-3.3-4.5-.2-.9-.8-6.6-1-7.1-.9-2.4-.6-1.5-2.8-2.8-4.6-2.7-10.8-.7-14.7 2.5-2 1.7-3.6 4.1-4.2 6.7-.6 3.1.2 6.2 1.3 9.1 1.3 2.8 2.1 7 3 7.5z" fill="#f3c0a4"/><path d="m104.9 56.3v5.7s-1.3.7-1.3.4c0-.4-.4-1.8-.6-2.4s-2 1.5-1.3 4.4c.3 1.1 1.6 1.7 1 2.8-.8 1.5-2.4 4.9-4.5 6.3-2.4 1.7-6.5 1.6-6.5 1.6l-3.9-.1s-7.6-12.3-6.2-17.9c1.3-5.8 23.3-.8 23.3-.8z" fill="#1e231b"/><path d="m80.5 62.6s13.7-1.5 22.2-4.7c6.3-2.3 8.7-4.2 9.2-6 .2-.8-.3-1.6-1.1-1.8-.6-.1-1.5-.1-2.7.1 0 0-.7-12.8-14.1-11.3-14.2 1.6-14.1 8.5-14.8 12.3-.8 4 1.3 11.4 1.3 11.4z" fill="#ff9a00"/><path d="m108.1 50.3s-.5 3.7-3.4 5.1c0 0 1.4-8 .8-12.3 0 .1 2.4 3.7 2.6 7.2z" fill="url(#y)" opacity=".36"/><path d="m93.7 84.8s2.1-2.1 0-5.5-.1-7 1.4-10.4c0 0 2.3-6.4 1.3-10s-1.8-7.7-6.4-8.9c-4.6-1.1-3.4-8.9-1.8-9.7 0 0-9.2 1.2-9.2 13.1v1.3c.7 6 1.5 7.9 1.5 7.9l2.3-.3s2.2 9.3 4.7 12.7c0 0 0 3.3-.2 5-.3 2.7-.5 4.8-.5 4.8.4-.1 6.9 0 6.9 0z" fill="url(#z)" opacity=".36"/><path d="m130 110.2 13.8 15.9-12.2.8-5-12.5z" fill="url(#A)"/><path d="m151.6 376.9c-.3 1.4-7.4 24.5-7.4 24.5l-12.8-.1 4.9-25.8z" fill="#e7bb86"/><path d="m146.6 393.5c-.1-.6 0 14 0 14h-38.7l25.2-14.4s.2 6.5 4 6.9c3.6.3 10.1-3.4 9.5-6.5z" fill="url(#B)"/><path d="m195 194.4-14.3 39.2-26.4 9.2 1.4 11.3 32.6-7.5c1.8-.1 3.3-1.2 4.1-2.8l16.3-38c0-.1 4.8-16.6-13.7-11.4z" fill="#e7bb86"/><path d="m190.4 208.6c-.3-.3-.1 3.1 2 5.1 7.8 7.7-2.5 13.9 4.8 18.3 0 0 4.8-9.7 4.2-13.1-.7-4.3-4.8-6-4.8-6s-5.6-3.8-6.2-4.3z" fill="#e3af71"/><path d="m208.2 269.4c-12.8 2.5-41.4 9.3-50.3 11.4-3.9.9-7.5 3-10 6.2-1.6 2-3 4.6-3.6 8-1.7 10.1-12.7 89.8-13 90.7-.2 1 15.2 1.7 20 1.2-2.7.7 16.1-49.3 17.5-54.1s2.7-28.2 10.6-32.1 21.5.2 29.7-7.7c5.8-5.7 15.3-15 12.2-20.2-1.2-2.1-13.1-3.4-13.1-3.4z" fill="#424242"/><path d="m254.9 265c.2 1 1.2 1.5 2.7 3.5 5.9 7.5 11.8 40.5-15.8 42.1l-54.7 1.7-12.7-26.1 46-12.2z" fill="#595959"/><path d="m194.5 111.5s-10 3.5-7.3 20.2c2.8 16.9 15.2 16.9 7.1 36.3-8 19.4 9.3 22.3 9.3 22.3l16-9-12.8-64.4z" fill="#6b4cff"/><path d="m202 179s-15.2 21.9-17.2 24.6c-2 2.6 8.4 9.1 12 9.4 3.5.2 13.6-27.3 5.2-34z" fill="#53d6ed"/><path d="m202 179s-15.2 21.9-17.2 24.6c-2 2.6 8.4 9.1 12 9.4 3.5.2 13.6-27.3 5.2-34z" fill="#53d6ed"/><path d="m202 179s-15.2 21.9-17.2 24.6c-2 2.6 8.4 9.1 12 9.4 3.5.2 13.6-27.3 5.2-34z" fill="url(#C)" opacity=".36"/><path d="m218.7 172.1-14.6 6.1c-.6.3-1.1.4-1.8 1.2-.7.7-1.4 1.7-1.3 3 .5 9.9-3.4 17.6-5.1 29.5-.5 3.5 4 10.5 4 12.1-.3 21.7-1.6 39.4-2.2 47.8 0 0 10 2.8 24.1 2.4 12.6-.4 36.2-5.3 36.2-5.3s-8.3-36.7-4.4-52.6c3.3-13.3 8.8-30.8.3-40.7-8.5-9.8-35.2-3.5-35.2-3.5z" fill="#53d6ed"/><path d="m211.8 149.8s2.5 7.2 3 13.7c.1 1.5.3 3.9.2 6.2-.1 1.8-1.2 3.5-2.8 4.3l-4.3 2.1c-1.9 3.3-2.3 10.1 1 11.9 8.2 4.6 23.7-6.3 27.1-9.7 1.5-1.5 4-5.8 3.5-7.8l-3-1.1c-1.7-6.4-4.7-13.9-4.4-27.3.3-20.2-20.3 7.7-20.3 7.7z" fill="#e7bb86"/><path d="m212.7 153s2 7.7 1.9 9.9c.4-.4 14-3.9 11.8-15.5z" fill="#dea25a"/><path d="m199 116.9c-3.3 3.6-3.9 6.5-3.3 12.3.8 7.9 4.1 17.8 10.2 26.5 6.9 10 21.2-3.7 22.9-6.1 7.4-10.3.3-27.7-9.2-32.5-9.4-4.7-20.6-.2-20.6-.2z" fill="#e7bb86"/><path d="m230.8 137.5c.2-1.3.8-2.6.6-3.9-.4-2.1-3.7-2.8-5-1.1-.3.4-.5.9-.9 1.3-.6.6-1.6.8-2.5.7-3.8-.3-6.4-3.9-8.2-7.3s-2.9-6.8-6.4-8.3c-2.5-1.1-5.7.2-8.4-.1-1.9-.2-5.1-1.8-6.3-3.4-1.7-2.2-.3-3.8 2.2-4.5 9.7-2.7 18.2-10.3 28.3-10.2 8.2 0 16.1 5.8 18.7 13.7 2.5 7.7.1 16.4 3.2 23.8 1.5 3.7 4.2 6.7 6.5 10s4.2 7.1 3.8 11c-.4 3.5-1.6 6.9-1.3 10.4.4 4.2 4.3 7.2 6.2 11 1.9 4 .4 8.9-2.3 12.5-1.9-5.1-.5-11.3-3.6-15.7-5-7-17.4-4.2-22.6-11.1-2.6-3.4-2.5-8.2-1.8-12.4.7-4.3 1.7-8.6.6-12.8-.3-1.1-.7-2.1-.7-3.2-.1-.1-.1-.3-.1-.4z" fill="#8b73ff"/><path d="m229 101.7c2.4-.1 4.8.8 7 1.9s4.2 2.6 5.9 4.3c3.5 3.6 4.6 8.8 4.4 13.7-.1 2.4-.4 4.9-.8 7.2-.3 2.4-.4 4.8-.1 7.1.2 1.2.6 2.3 1.2 3.3s1.3 2 2.2 2.8c1.7 1.6 4.2 2.5 6.6 2.1-2.4.5-5-.2-6.9-1.8-1-.8-1.8-1.7-2.4-2.8s-1.2-2.2-1.4-3.5c-.4-2.5-.3-4.9 0-7.3s.7-4.8.8-7.2-.1-4.8-.7-7.1c-.3-1.1-.8-2.2-1.3-3.3-.3-.5-.5-1.1-.9-1.5-.3-.5-.7-.9-1.1-1.4-1.7-1.7-3.6-3.2-5.7-4.4-2.1-1.1-4.4-2-6.8-2.1z" fill="#8b73ff"/><path d="m193.3 142.4c1.7 1.6 2.9 3.7 3.5 6s.3 4.8-.6 7-2.7 3.9-3.6 5.9-.8 4.4-.6 6.7c-.6-2.2-.9-4.7 0-6.9.4-1.1 1.1-2.1 1.8-3 .6-.9 1.2-1.9 1.7-2.9 1-2 1.2-4.3.8-6.5-.2-1.1-.6-2.2-1.1-3.2-.6-1.2-1.2-2.2-1.9-3.1z" fill="#6b4cff"/><path d="m190.8 141.6c-.4-1.5-1-3-1.7-4.4s-1.5-2.7-2.4-4c-1.8-2.6-2.7-5.9-2.6-9.1.2-3.2 1.4-6.4 3.7-8.7 2.2-2.3 5.3-3.7 8.4-4.3-3 .9-5.9 2.4-7.9 4.7s-3.2 5.3-3.3 8.4.6 6.2 2.4 8.7c1.5 2.6 2.9 5.6 3.4 8.7z" fill="#6b4cff"/><path d="m255 162.9c.1.6 0 1.2 0 1.9 0 .6.1 1.2.1 1.8.2 1.2.6 2.3 1.2 3.4.6 1 1.4 2 2.3 2.8s1.9 1.4 2.9 2.3c1.9 1.6 3.5 3.9 3.8 6.5.4 2.5-.2 5.1-1.5 7.2 1-2.3 1.4-4.8.9-7.2s-1.8-4.5-3.7-6c-.5-.4-1-.7-1.5-1.1s-1-.8-1.5-1.2c-.9-.9-1.8-1.9-2.4-3s-.9-2.4-1-3.6c.1-1.4.3-2.6.4-3.8z" fill="#8b73ff"/><path d="m244.4 190.4s-4.7 4.8-2.4 14.9c1 4.4 2.7 15.3.4 21.9-8.5 24 0 30.6 4.4 42 1.9 5 4.6 9.8 7.8 14.1l7.2 9.8c3-14.3-4.6-24.4-4.2-24.5 0 0-5.9-28.5-5.5-44.5.1-3.1.3-7.4 1.7-11.2 2.4-6.7-3.6-22.5-9.4-22.5z" fill="url(#D)" opacity=".36"/><path d="m167.4 299s-5.1-.8-10 14.8c-5.1 16 3.4 25-2.1 37.6-3.5 8.1-.9 23.5-.9 23.5l14.8-42.8c-.1 0 3.1-31.6-1.8-33.1z" fill="url(#E)" opacity=".36"/><path d="m269.4 204.4c.4 2.2 8.1 36.5 8.1 36.5l-14.4 4.8-11.3-34.4z" fill="#e7bb86"/><path d="m242.7 175.4c2.8-3.1 15.1-4.9 24.3 16.3 2.8 6 6.2 18.2 6.2 18.2s-14.5 2.8-21.1 6.8c0 0-1.8-2.4-3.1-6.1-.7-2.2-1-4.9-2-7.5-1.2-3.5-3.2-6.9-4.4-9.5-6.1-13.9.1-18.2.1-18.2z" fill="#53d6ed"/><ellipse cx="198.9" cy="137.5" fill="none" rx="4.5" ry="6.8" stroke="#fff" transform="matrix(.9901 -.1403 .1403 .9901 -17.3286 29.2663)"/><ellipse cx="211.5" cy="135.3" fill="none" rx="4.7" ry="7.1" stroke="#fff" transform="matrix(.9901 -.1403 .1403 .9901 -16.8945 31.0128)"/><path d="m202.6 134.2s.7-1.5 4.1-.8" fill="none" stroke="#fff"/><path d="m216.1 134.7 7.7-.4" fill="none" stroke="#fff"/><path d="m190.9 405.4c-.3 0-.6 0-.9-.1-2.3-.5-3.7-2.7-3.2-4.9l18-87c.5-2.3 2.7-3.7 4.9-3.2 2.3.5 3.7 2.7 3.2 4.9l-18 87c-.3 1.9-2.1 3.3-4 3.3z" fill="url(#G)"/><path d="m190.8 382.9 3.1 19.1 12.5.5s-1.8-17.3-2.5-22.6z" fill="#e7bb86"/><path d="m196 311.2s-6.9-25.7-13-26.2c-9.2-.8-28.1 4.8-19.8 34.9 10.7 24.1 25.1 71.2 25.1 71.2s.3 4 11.7 1.3l8.3-2.1s-3.2-12.2-4.2-34.4-6.9-41.8-8.1-44.7z" fill="#595959"/><path d="m226.5 400.8c-1.9-.4-3.3-2.1-3.3-4.1v-83.4c0-2.3 1.9-4.2 4.2-4.2s4.2 1.9 4.2 4.2v83.4c0 2.3-1.9 4.2-4.2 4.2-.3 0-.6-.1-.9-.1z" fill="url(#H)"/><path d="m201 316.4h61.3c3.3 0 6-2.7 6-6l-.1-4.3h-73.3v4.2c.1 3.4 2.8 6.1 6.1 6.1z" fill="#333"/><path d="m229.6 259.4-4.1-.6c-.5-.1-1 0-1.3.3-1.2.9-4 2.8-6.6 4-3.4 1.5-7.5-2.2-15 3.5s-10.7 4.8-8.3 7.5c.8.9 21.2-1.6 23.7-2.1.1 0 4-2.3 4.1-2.3l7.6-3.5c.6-.3 1-.8 1.1-1.5l.3-3.4c.1-.9-.6-1.7-1.5-1.9z" fill="#e7bb86"/><path d="m168.4 281.7 65.7-7.4c1-.1 1.6-1 1.5-1.9l-.3-2.4-67.5 7.6z" fill="#858585"/><path d="m202.2 277.8-23-45.9c-.9-1.8-2.9-2.9-4.9-2.7l-68.6 7.7c-1 .1-1.7 1.2-1.2 2.2l22.3 44.5c.8 1.5 2.4 2.4 4 2.2z" fill="url(#I)"/><path d="m228.8 139.5v.1" fill="none"/><path d="m199.1 117.1c2.9-.6 6.1 0 8.4 2 1.2 1 2.1 2.3 2.7 3.6.3.7.6 1.4.8 2.1s.4 1.4.6 2.1c.9 2.7 2.4 5.3 4.7 7.1s5.4 2.1 8.2 1.4c-1.4.5-2.9.7-4.4.6s-3-.7-4.2-1.5c-1.3-.8-2.3-2-3.1-3.3s-1.5-2.6-1.9-4c-.5-1.4-.7-2.9-1.3-4.2s-1.4-2.5-2.4-3.5c-2.1-1.9-5.2-2.7-8.1-2.4z" fill="#8b73ff"/><path d="m266.4 410.1c-1.9 0-3.7-1.4-4.1-3.3l-19.2-91.8c-.5-2.3 1-4.5 3.2-4.9 2.3-.5 4.5 1 4.9 3.2l19.2 91.8c.5 2.3-1 4.5-3.2 4.9-.2.1-.5.1-.8.1z" fill="url(#J)"/><path d="m276.9 239.5c-1.6-3.3-4.8-4.7-9.7-4.4-2.1.1-4.8-.6-7.3.9-2.4 1.5-8.3 5.1-13.8 8.6-11.9 7.7-20 13.4-25.5 17-1.8 1.2-3 1.5-3 1.5l8.3 4.6 43.4-13.6c5.1-2.5 10.1-7.4 8.3-12.6 0-.1-.6-1.8-.7-2z" fill="#e7bb86"/><path d="m233.9 167.9s-5.1-4.3-5.1-12.1 3.1-8.3 2.6-14.6c1.2 3.1.2 9.6-.6 12.7-1 4.3.2 11.8 3.1 14z" fill="#dea25a"/><path d="m230.8 132.5s-.1 5.4-1.9 6.3c0 0 4.5-2.2 1.9-6.3z" fill="#dea25a"/><path d="m260 236s5.2.5 6.4.6-4.1 3.1-10 4.5-9.4 6.9-13 8.7c-2.8 1.5-6.1 2.3-8 2l9.9-6.6z" fill="#e3af71"/><path d="m270.6 210.5c0 .2.9 4.5.9 4.5s-3.4.5-6.8-.4-5.3 1.2-7.2 1.2c-2.1 0-2.9-.4-2.9-.4s2.5-1 6.3-2.2c3.7-1.4 9.7-2.7 9.7-2.7z" fill="#e3af71"/><path d="m155 257.1c1.1 2.4.6 5-1.1 5.8-1.7.7-3.9-.6-5-3.1-1.1-2.4-.6-5 1.1-5.8 1.7-.7 4 .7 5 3.1z" fill="url(#K)"/><path d="m192.5 393.2c.4.1 3.7 1.1 7.3.8 3.7-.2 5.4.1 5.4.1v-3.2z" fill="#dd9f54"/><path d="m134.2 386.4s12 1.1 14.5.6c-.6.3-1.5 4.5-1.5 4.5s-3.5-1.5-6.2-2.3-3 .7-4.9-.6-1.9-2.2-1.9-2.2z" fill="#dd9f54"/><path d="m205.3 392.9 3.9 13.3-35.5 10.1 18.7-20.5s6.1 2.1 10.2 4.6c3.1 2.1 2.7-7.5 2.7-7.5z" fill="url(#L)"/><path d="m203.3 114c2.2-1.2 4.9-1.8 7.5-1.2 1.3.3 2.5 1.1 3.4 2s1.7 2 2.4 3.1c1.3 2.2 2.3 4.6 3.6 6.8.6 1.1 1.3 2.1 2.3 2.9.9.8 2.2 1.2 3.5 1-1.2.3-2.7 0-3.7-.7-1.1-.8-1.9-1.9-2.6-2.9-1.4-2.2-2.4-4.6-3.7-6.7-1.2-2.2-2.9-4.2-5.3-4.9-1.2-.4-2.4-.4-3.7-.3s-2.5.4-3.7.9z" fill="#b0a0ff"/><path d="m241.3 129.5c-.1 1.6-.1 3.2 0 4.7.1 1.6.4 3.1.8 4.6.5 1.5 1.1 2.9 1.9 4.2.9 1.3 2 2.3 3.2 3.3s2.4 2.1 3.5 3.3 2.2 2.4 2.8 4c.7 1.5.9 3.2.6 4.8s-1 3.1-1.9 4.4c.7-1.4 1.4-2.9 1.5-4.4.2-1.5-.1-3.1-.8-4.5-1.4-2.8-3.9-4.8-6.3-6.9-1.2-1-2.4-2.2-3.3-3.5-.9-1.4-1.5-2.9-1.9-4.4-.6-3.2-.7-6.5-.1-9.6z" fill="#b0a0ff"/><path d="m205.9 112.5c1.5-.9 3.2-1.4 5-1.6s3.7 0 5.3.8c.4.2.8.5 1.2.7s.7.6 1.1.9c.6.6 1.2 1.4 1.7 2.1s1 1.4 1.5 2.1c.3.3.5.7.9 1 .2.1.3.3.5.4s.4.2.6.1c-.2.2-.4.1-.6 0s-.4-.2-.6-.3c-.4-.3-.7-.6-1-.9-.6-.6-1.2-1.3-1.7-2-1.1-1.4-2.2-2.6-3.8-3.3-1.5-.7-3.2-1-4.9-1-.9 0-1.7.1-2.6.3-1 .2-1.8.4-2.6.7z" fill="#b0a0ff"/><path d="m200.1 154.3c1.1 1.8 1.3 4 1.3 6 0 2.1-.4 4.2-1 6.2s-1.3 3.9-1.7 5.9c-.2 1-.4 2-.4 3 0 .5 0 1 .1 1.5s.3 1 .7 1.3c-.5-.3-.7-.8-.9-1.3s-.2-1-.3-1.6c0-1.1.1-2.1.2-3.1.2-1 .4-2 .7-3l.9-3c.6-2 1-4 1.1-6 .1-1 .1-2 0-3s-.3-2-.7-2.9z" fill="#866eff"/><path d="m203.6 39.5 69.3-4.9v47.5h-69.3z" fill="url(#M)"/><path d="m225.2 82.1-21.6-.1v-42.5l21.6-1.5z" fill="#222e50"/><path d="m273 39-69.3 4v-3.7l69.3-4.6z" fill="url(#N)"/><path d="m266.7 74.8-35.9.4v-26.9l35.9-1.8z" fill="url(#O)"/><path d="m240.5 36.8 5.6-.3c-2.7 8.2-9.2 14.2-16.8 14.9-9.7.9-17.4-7.6-17.4-18.9s7.7-21.6 17.4-23c9.9-1.5 11.2 15.5 11.2 27.3z" fill="url(#P)" opacity=".36"/><path d="m243.1 25.6c0 11.9-8.3 22.2-18.2 23.1-9.7.9-17.4-7.6-17.4-18.9s7.7-21.6 17.4-23c10-1.5 18.2 6.9 18.2 18.8z" fill="url(#Q)"/><path clip-path="url(#R)" d="m220.5 40.2.4-3h-.8l-3.8.3 2.6-21.9c0-.1 0-.1.1-.2l.1-.1 6.5-.6c2.2-.2 3.7.3 4.5 1.3.4.5.6 1 .7 1.7.1.6.1 1.4 0 2.4v.1.6l.4.2c.3.2.6.4.7.7.3.4.5 1 .6 1.7s.1 1.6-.1 2.5c-.2 1.1-.4 2.1-.8 2.9-.3.8-.8 1.4-1.3 1.9s-1.1.9-1.7 1.1c-.6.3-1.4.4-2.1.5h-.5c-.4 0-.7.2-1 .5s-.5.8-.5 1.2v.3l-.6 5.3v.2.1s0 0-.1 0z" fill="#253b80"/><path clip-path="url(#S)" d="m231.5 20.2c0 .2 0 .3-.1.5-.9 5.8-3.8 8-7.6 8.3l-1.9.1c-.5 0-.8.5-.9 1.1l-1 8-.3 2.3c0 .4.2.7.5.7l3.4-.2c.4 0 .7-.4.8-.9v-.2l.6-5.2v-.3c.1-.5.4-.9.8-.9h.5c3.3-.2 5.9-2.1 6.7-7.2.3-2.1.2-3.8-.7-5-.1-.6-.4-.9-.8-1.1z" fill="#179bd7"/><path clip-path="url(#T)" d="m230.6 19.8c-.1 0-.3-.1-.4-.1s-.3-.1-.4-.1c-.5-.1-1.1-.1-1.7 0l-5.1.4c-.1 0-.2.1-.4.1-.2.2-.4.5-.5.8l-1.1 8.9v.3c.1-.6.5-1 .9-1.1l1.9-.1c3.8-.3 6.7-2.5 7.6-8.3 0-.2 0-.3.1-.5-.2-.1-.5-.2-.7-.3 0 0-.1 0-.2 0z" fill="#222d65"/><path clip-path="url(#U)" d="m222.2 21c0-.4.2-.7.5-.8.1-.1.2-.1.4-.1l5.1-.4c.6-.1 1.2 0 1.7 0 .1 0 .3 0 .4.1.1 0 .3.1.4.1s.1 0 .2.1c.3.1.5.2.7.3.3-2.1 0-3.5-.9-4.8-1-1.3-2.7-1.8-5-1.6l-6.5.6c-.5 0-.8.5-.9 1.1l-2.7 22.1c-.1.4.2.8.5.8l4-.3 1-8.3z" fill="#253b80"/><path d="m112.4 8 48.3-5.3v33.9l-48.3 3.5z" fill="url(#V)" opacity=".78"/><path d="m160.7 8.1-48.3 4.9v-4.8l48.3-5.3z" fill="url(#W)"/><path d="m152.2 28.7-32.7 2.7v-13.3l32.7-3.1z" fill="none" stroke="#c4e5f7" stroke-miterlimit="10"/></svg>