<svg height="165" viewBox="0 0 111 165" width="111" xmlns="http://www.w3.org/2000/svg" xmlns:xlink="http://www.w3.org/1999/xlink"><linearGradient id="a"><stop offset="0" stop-color="#fff"/><stop offset=".08745795" stop-color="#e8e8e8"/><stop offset=".7243" stop-color="#434343"/><stop offset="1"/></linearGradient><linearGradient id="b" x1="92.604455%" x2="-474.527155%" xlink:href="#a" y1="88.750309%" y2="-427.472042%"/><linearGradient id="c" x1="-12.586775%" x2="1502.95672%" xlink:href="#a" y1="-18.424457%" y2="1640.37811%"/><linearGradient id="d" x1="4.749929%" x2="495.313742%" y1="32.460707%" y2="223.017584%"><stop offset="0" stop-color="#fff"/><stop offset=".08919893" stop-color="#f8f8f8"/><stop offset=".2165" stop-color="#e5e5e5"/><stop offset=".3667" stop-color="#c7c7c7"/><stop offset=".5344" stop-color="#9c9c9c"/><stop offset=".7165" stop-color="#656565"/><stop offset=".908" stop-color="#222"/><stop offset="1"/></linearGradient><linearGradient id="e"><stop offset="0"/><stop offset="1" stop-color="#fff"/></linearGradient><linearGradient id="f" x1="226.393081%" x2="-269.212098%" xlink:href="#e" y1="-792.430678%" y2="1546.67437%"/><linearGradient id="g" x1="54.921799%" x2="129.028374%" xlink:href="#e" y1="51.072549%" y2="76.782353%"/><linearGradient id="h"><stop offset=".09741951"/><stop offset="1" stop-color="#177fff"/></linearGradient><linearGradient id="i" x1="146.063837%" x2="-3.785507%" xlink:href="#h" y1="32.132029%" y2="61.836679%"/><linearGradient id="j" x1="-1.328027%" x2="73.554849%" xlink:href="#h" y1="108.812977%" y2="23.03944%"/><linearGradient id="k" x1="43.057895%" x2="-382.917544%" xlink:href="#a" y1="52.787258%" y2="-194.66008%"/><linearGradient id="l" x1="73.12604%" x2="40.972176%" xlink:href="#e" y1="-16.734483%" y2="141.917241%"/><g fill="none" fill-rule="evenodd"><g fill-rule="nonzero"><path d="m33 81.7-20.9 3.6c-3.3.6-6.4-1.6-6.9-4.9l-3.6-20.9c-.6-3.3 1.6-6.4 4.9-6.9l20.9-3.6c3.3-.6 6.4 1.6 6.9 4.9l3.6 20.9c.5 3.2-1.6 6.3-4.9 6.9z" fill="url(#b)"/><g transform="translate(12 55)"><path d="m16.5 6.2c0-1.9-.5-3.1-1.7-4.1-1.3-1.1-3.4-1.3-5.9-.9l-7.3 1.2c-.5.1-.9.5-.9 1.1l.1 19.9c0 .4.4.7.7.6l4.5-.7v2c0 .3.3.6.6.5l3.8-.6c.5-.1.8-.5.8-.9v-.2-4.7-.3c0-.5.3-.9.8-.9l.6-.1c3.7-.6 6.4-2.6 6.5-7.1.1-1.9-.4-3.4-1.5-4.3-.3-.2-.6-.4-1.1-.5z" fill="#009ade"/><path d="m16.5 6.2c0-1.9-.5-3.1-1.7-4.1-1.3-1.1-3.4-1.3-5.9-.9l-7.3 1.2c-.5.1-.9.5-.9 1.1l.1 19.9c0 .4.4.7.7.6l4.5-.7v-7.4.2c0-.5.4-1 .9-1.1l2.2-.4c4.2-.7 7.3-2.9 7.4-8.1 0 0 0-.2 0-.3" fill="#002169"/><path d="m6 7.9c0-.3.2-.6.4-.8.1-.1.2-.1.4-.2l5.8-.9c.7-.1 1.3-.2 1.9-.2h.5.5.2c.3 0 .6.1.9.2 0-1.9-.5-3.1-1.7-4.1-1.3-1.1-3.4-1.3-5.9-.9l-7.3 1.2c-.5.1-.9.5-.9 1.1l.1 19.9c0 .4.4.7.7.6l4.5-.7v-7.4z" fill="#002f87"/></g><path d="m27.2 38.7-21.5-4.5c-3.2-.7-5.3-3.8-4.7-7.1l4.5-21.5c.7-3.2 3.8-5.3 7.1-4.7l21.5 4.5c3.2.7 5.3 3.8 4.7 7.1l-4.5 21.5c-.6 3.3-3.8 5.4-7.1 4.7z" fill="url(#c)"/><path d="m105.7 57.9-31.1 12.1c-3.6 1.4-7.7-.4-9.1-4l-12.2-31c-1.4-3.6.4-7.7 4-9.1l31.1-12.2c3.6-1.4 7.7.4 9.1 4l12.2 31.1c1.4 3.6-.3 7.6-4 9.1z" fill="url(#d)"/><g transform="translate(64 92)"><path d="m19.3 25.6s0 9.4 1.5 12c1.3 2.2-4.4 3.1-9.2 2.4s-6.8 2.6-6-1.6c.8-4.1-.4-10.9-.4-10.9s4.2-4.5 14.1-1.9z" fill="#c89773"/><path d="m19.1 26.2c-.7.7-1.4 1.3-2.2 1.7-2 .9-4.5 1-6.6.7-1.6-.2-3.1-1.4-3.6-1.1-.5.4-1.8.5-2.3.4-.9-.1-1.6-.3-2.1-.6-1-.6-2.4-1.5-1-5.8.9-2.7 1.1-3.1.9-3.6s-.7-1.2-.4-1.6 3-6.3 3.3-7.8c.5-2.1 1.8-3.9 3.7-4.9 4-2.1 9.1-.2 12.3 2.7 1.7 1.5 2.9 3.5 3.2 5.8.4 2.6-.4 5.2-1.5 7.6s-2.1 4.7-3.7 6.5z" fill="#c89773"/><g fill="#000"><path d="m9.5 17.4s-6.8-3.4-6.5-9.2c.2-5.7 2.2-7.2 2.2-7.6.1-.5 4.2.8 4.7.9 1.6.5 3.3.9 5 1.1 3.3.5 6.5-.1 9.6 1.6 2.9 1.6 4.5 4.6 4 7.9-.4 3.5-2.7 6.6-5 9.2-.6.7-1.2 1.4-1.5 2.2-1.5 3.1-1.5 3.8-1.9 4.4s-1.8.4-3.3.3c-2.7-.3-6.1-3.6-6-6 0-.3 0-.6.1-1 0-.2 0-.8.1-.9 0 0 2.6-2.1 1.2-3.6-1.5-1.4-2.7.7-2.7.7z"/><path d="m8 16.4s-.7 2.6-3.1 3.1c-1.9.5-2.9-.7-2.9-.7s-1.3 3.3-1.4 4.5c-.2 1.3-.5 3.2 1.2 4.1 1.5.8 3.2.8 3.8.7.3-.1.8-.3 1.1-.6.6-.4 1.3-1.6 1.6-3.6.4-2.8 1.1-6.5 1.1-6.5z"/><path d="m6.8.7c-.9 0-1.8.2-2.4.7-.7.4-1.1 1.1-1.3 1.9-.3.8-.4 1.6-.5 2.5s-.1 1.7-.2 2.7c-.3-.9-.5-1.7-.6-2.7-.1-.5 0-.9 0-1.4.1-.5.1-.9.3-1.4.3-.9.9-1.8 1.9-2.2 1-.5 2-.5 2.8-.1z"/><path d="m23.8 5.7c0-.1 0-.1 0-.1h.2.4c.2 0 .5.1.7.1.5.1.9.3 1.4.5.9.4 1.6 1 2.2 1.7s.8 1.7.9 2.6c0 1-.1 1.9-.3 2.9.5-.9.8-1.9.8-2.9 0-.5 0-1-.2-1.6-.1-.5-.4-1-.7-1.4-.6-.9-1.5-1.5-2.5-1.8-.5-.2-1-.3-1.5-.3-.3 0-.5 0-.8 0-.1 0-.3 0-.4.1-.1 0-.1 0-.2.1-.1 0-.1.1 0 .1z"/></g><path d="m7.4 2.8c-.6.8-1 1.6-1.3 2.5s-.4 1.9-.4 2.8c0 1 .2 1.9.7 2.8.4.9 1.1 1.6 1.8 2.1-.6-.7-1.1-1.5-1.4-2.3-.2-.4-.3-.8-.4-1.3-.1-.4-.1-.9-.1-1.3 0-.9.1-1.8.3-2.7s.5-1.7.8-2.6z" fill="#565656"/><path d="m9.4 4.2c-.3.5-.5 1-.5 1.6-.1.6 0 1.2.1 1.7.2.6.4 1.1.8 1.5.2.2.4.4.6.6s.5.3.7.5c-.1-.2-.3-.4-.5-.7-.1-.2-.3-.4-.4-.7-.3-.5-.4-.9-.6-1.4-.1-.5-.2-1-.2-1.5-.1-.5-.1-1.1 0-1.6z" fill="#565656"/><path d="m24.8 6.4c.4.7.7 1.5 1 2.3.1.4.2.8.2 1.2 0 .2 0 .4.1.6v.6.6.3c0 .1 0 .2-.1.3 0 .2-.1.4-.1.6-.1.2-.1.4-.2.6 0 .1 0 .2-.1.3l-.1.3-.2.6c-.2.4-.3.8-.5 1.2.3-.3.5-.7.8-1l.3-.6c.1-.2.2-.4.3-.6.3-.8.5-1.7.6-2.5 0-.9-.1-1.7-.4-2.6-.5-.9-.9-1.6-1.6-2.2z" fill="#565656"/><path d="m14 34.2s-1.4-1-.8-3.8 2.1-1 1.4-6.6-1.2-8.1.3-12.7 9.7-2 10 2.5-2.5 9.2-3.9 10.5c-1.3 1.3-.5 3.2-1 3.8-.3.3-.7.5-.7.5 0 1.1.5 5.5.5 5.5z" fill="url(#f)" opacity=".09"/><path d="m7.7 25.9s-1 3.7-2 5.1c0-.1-.4-3.7-.4-3.7z" fill="url(#g)" opacity=".09"/></g><path d="m88.8 129.3c.3.2 1 .5 2.1 1.4 1.7 1.4 3.9 4.2 4.4 7.9.7 6.1-2.3 18-3 23.5-.0744146.539506-.1436378 1.175919-.2075086 1.889038l-35.6281568.014502c.0686097-2.914.0617965-5.728656-.0643346-8.50354-.3-6.4-1.5-18.3-.7-21.1.6-2.3 5.8-6.2 12.9-6.6.9-.1.4-1.8 1-1.8 1.2-.1 3.4.1 4.7.2 4.8.3 7.7-.5 10.1-.2.2 0 1.5 2.7 1.7 2.7 1.8.1 2.3.4 2.7.6z" fill="#177fff"/><g transform="translate(15 80)"><path d="m.6 5.7s.1-1.1.5-1.3c.2-.1 4.3-1.8 4.3-1.8l2.4-1.3s.5.5.3 1.1c-.2.5-1.5 1.7-1.5 1.7s1.9 1 1.9 1.1c.1 0 0 .4-.2.6-.2.1-.6.3-.6.3l.6 1.4s.5 1.1-.2 1.3c-.1.2-7.5-3.1-7.5-3.1z" fill="#bb7f53"/><path d="m5.5 21c-.2-.6-.8-4.9-1.5-6.4-.5-1-1.8-2-2.7-2.6-.6-.4-.9-1.1-.9-1.8 0-.5 0-1.1 0-1.5 0-.9.2-4 .7-4.3.6-.3 2.8.2 3 .1.2-.2-.4-3.6.4-4.1s1.2-.4 1.4.8.6 3.1.8 3.4c.1.1.2 1.1.9 2.5.4.9 1.5 1.8 1.8 4 .4 2.7.9 9.1.9 9.1z" fill="#c89773"/></g><path d="m93.8 134.2s1.3 1.9 2.4 5c.5 1.4 1 3.3 1.4 4.5 1.1 3.3 3 14.9 3 14.9s.89677 2.989233.425244 5.40831l-9.4613817-.01811c.2448841-1.477264.4361377-2.4902.4361377-2.4902z" fill="#177fff"/><path d="m93.7 134s-1.4-3-5-4.7c0 0-.4-.4-2.6-.7-.3 0-1.4-2.6-1.8-2.6-1.4-.2-4.9.1-4.8.2 2.8.9 1.3 2.2.5 2.2-.1 0-2.1 0-2.3 0-18.1 2.3-8.7 21.6-3.6 33.5.2836915.664902.8454194 1.24592.8454194 2.060028l17.0667649.07131c.2030448-2.591496.3878157-4.231338.3878157-4.231338s.3-5.2 2.9-9.9c.4-.7-2.4 5.7-.7 11.1.3070533 1.052754.3351097 2.071837.1917802 3.028761l6.0483658-.032334c.059854-.343141.059854-.590247.059854-.696427.4-4-1.5-10.8-3-17.4-1.2-6.4-3.7-11-4.2-11.9z" fill="url(#i)" opacity=".36"/><path d="m57.1 126.2-16.9-9.4-14.7-23.8-7.6 2.8 12.3 26.9 25.9 23.2c3 .2 5.2-1.4 6.6-3.8 2.2-3.8 8-13.9 3.8-14-2 0-4.3-.4-6.1-1-.7 0-2.3-.4-3.3-.9z" fill="#177fff"/><path d="m56.1 146-25.9-23.2-7.3-16.1s5.3 3.2 6.5 9.7c1.1 5.7 6.1 5.2 8.3 8.2 3 4 4 7.3 6.7 8.7 3.5 1.9 10.5 1.3 11.5 9.2z" fill="url(#j)" opacity=".36"/><path d="m26.7 82.7-5.4.6-.3-1.4 2.7-1.2z" fill="url(#k)"/></g><ellipse cx="67.9768" cy="102.75501" rx="3.300043" ry="1.000013" stroke="#000" stroke-width=".500007" transform="matrix(.26229655 -.96498732 .96498732 .26229655 -49.010561 141.399475)"/><path d="m19.1 83.6-1.8.2 1.8-2.9z" fill="url(#l)" fill-rule="nonzero" opacity=".36"/><g fill="#f78223" transform="translate(11 10)"><path d="m19.5.6c.2 0 .4.1.5.1.8.1 1.3.5 1.9 1 .1.1.3.4.2.5s-.3.3-.5.3c-1.7.2-3.3.7-4.9 1.3-.9.4-1.8.8-2.7 1.3-1.9 1-3.4 2.5-4.9 4-1.6 1.6-3.1 3.3-4.4 5.1-.8 1.1-1.6 2.3-2.3 3.5-.4.6-.6 1.3-.9 1.9 0 .1-.1.3-.2.2-.1 0-.3-.1-.3-.2-.1-.2-.2-.5-.1-.8.3-1.3.8-2.6 1.4-3.8 1.2-2.3 2.7-4.5 4.5-6.4 1-1.1 2.1-2.2 3.1-3.2 1.6-1.6 3.4-2.9 5.4-3.9.9-.5 1.9-.8 2.9-1 .2 0 .3-.1.5-.1.4.2.6.2.8.2z"/><path d="m4.9 7.1c0 .9-.2 1.8-.5 2.7 0 .1-.1.2-.2.3-.1.2-.3.2-.4 0-.1-.3-.3-.6-.3-.9-.2-.9-.4-1.9-.6-2.8-.2-1.2-.4-2.4-.7-3.7 0-.2 0-.4-.1-.5 0-.2.1-.3.3-.2s.4.2.5.3c1.1 1.1 1.7 2.5 1.9 4 0 .2 0 .5.1.8z"/></g><path d="m65.9 33 7.2 5.5-4.7 10.2 13-5.2.1-3.4-7.2 2.9 2.6-6.1-4.3-3.3 11.9-4.7-.6 28.8 3.6-1.4.7-32.1z" fill="#00cdff" fill-rule="nonzero"/></g></svg>